REM MD5 d3b228cfb210935db807fe414649f1df
FILE "Shadow Madness (Europe) (Disc 1).bin" BINARY
  TRACK 01 MODE2/2352
    INDEX 01 00:00:00
  TRACK 02 AUDIO
    INDEX 00 63:21:49
    INDEX 01 63:23:49
  TRACK 03 AUDIO
    INDEX 00 67:28:35
    INDEX 01 67:30:35
REM LEADOUT 70:38:12
